<svg width="987" height="495" viewBox="0 0 987 495" fill="none" xmlns="http://www.w3.org/2000/svg">
<path d="M857.597 469.993H600.089L470.955 245.931L600.074 21.8688H857.582L986.716 245.931L857.597 469.993ZM641.88 195.138C614.268 242.944 630.686 304.175 678.447 331.819C726.223 359.448 787.418 343.02 815.044 295.229C842.671 247.439 826.238 186.193 778.477 158.549C730.716 130.905 669.492 147.348 641.88 195.138ZM138.791 171.243L187.313 198.872L147.746 267.586L99.2234 239.957L0.70105 410.986L145.507 494.634L224.626 357.954L397.791 458.03C435.85 479.685 483.626 466.991 505.268 428.908C526.91 390.825 514.223 343.02 476.164 321.365L303.746 220.542L382.119 83.8618L237.328 0.213778L138.791 171.243Z" fill="black"/>
<path d="M935.643 40.6208C936.867 40.6208 937.833 40.354 938.541 39.8203C939.258 39.2866 939.616 38.324 939.616 36.9326C939.616 35.4364 939.118 34.4166 938.121 33.8734C937.588 33.5875 936.875 33.4445 935.984 33.4445H929.61V40.6208H935.643ZM927 31H935.918C937.387 31 938.598 31.2335 939.551 31.7005C941.361 32.5963 942.266 34.2498 942.266 36.661C942.266 37.919 942.025 38.9483 941.544 39.7488C941.072 40.5494 940.408 41.1926 939.551 41.6787C940.303 42.0123 940.867 42.4506 941.243 42.9939C941.627 43.5371 941.842 44.4187 941.885 45.6385L941.977 48.4547C942.003 49.2553 942.064 49.8509 942.161 50.2417C942.318 50.9088 942.598 51.3376 943 51.5283V52H939.8C939.713 51.8189 939.643 51.5854 939.59 51.2995C939.538 51.0136 939.494 50.4609 939.459 49.6413L939.302 46.1389C939.24 44.7665 938.773 43.8468 937.898 43.3799C937.4 43.1225 936.617 42.9939 935.551 42.9939H929.61V52H927V31Z" fill="black"/>
<path fill-rule="evenodd" clip-rule="evenodd" d="M935 23C924.783 23 916.5 31.2827 916.5 41.5C916.5 51.7173 924.783 60 935 60C945.217 60 953.5 51.7173 953.5 41.5C953.5 31.2827 945.217 23 935 23ZM913.5 41.5C913.5 29.6259 923.126 20 935 20C946.874 20 956.5 29.6259 956.5 41.5C956.5 53.3741 946.874 63 935 63C923.126 63 913.5 53.3741 913.5 41.5Z" fill="black"/>
</svg>
